<?xml version="1.0" standalone="no"?><!DOCTYPE svg PUBLIC "-//W3C//DTD SVG 1.1//EN" "http://www.w3.org/Graphics/SVG/1.1/DTD/svg11.dtd"><svg t="1590459799332" class="icon" viewBox="0 0 1024 1024" version="1.1" xmlns="http://www.w3.org/2000/svg" p-id="9955" xmlns:xlink="http://www.w3.org/1999/xlink" width="16" height="16"><defs><style type="text/css"></style></defs><path d="M602.112 568.832h-174.08V510.976c0-4.608 3.584-8.192 8.192-8.192h186.88c18.432 0 33.28-14.848 33.28-33.28s-14.848-33.28-33.28-33.28H436.224c-40.96 0-74.752 33.28-74.752 74.752v60.928c0 35.328 28.672 64 64 64h174.08V701.44h-194.56c-18.432 0-33.28 14.848-33.28 33.28s14.848 33.28 33.28 33.28h197.12c35.328 0 64-28.672 64-64v-71.168c0-35.328-28.672-64-64-64z" fill="#2c2c2c" p-id="9956"></path><path d="M837.12 199.168h-108.544V131.072c0-18.432-14.848-33.28-33.28-33.28s-33.28 14.848-33.28 33.28v68.096H364.544V131.072c0-18.432-14.848-33.28-33.28-33.28s-33.28 14.848-33.28 33.28v68.096H186.368c-44.544 0-80.896 36.352-80.896 80.896v564.224c0 44.544 36.352 80.896 80.896 80.896h650.752c44.544 0 80.896-36.352 80.896-80.896V280.064c0-44.544-36.352-80.896-80.896-80.896z m14.336 645.12c0 7.68-6.656 14.336-14.336 14.336H186.368c-7.68 0-14.336-6.656-14.336-14.336V280.064c0-7.68 6.656-14.336 14.336-14.336h111.616v68.096c0 18.432 14.848 33.28 33.28 33.28s33.28-14.848 33.28-33.28V265.728h297.472v68.096c0 18.432 14.848 33.28 33.28 33.28s33.28-14.848 33.28-33.28V265.728h108.544c7.68 0 14.336 6.656 14.336 14.336v564.224z" fill="#2c2c2c" p-id="9957"></path></svg>