<?xml version="1.0" standalone="no"?><!DOCTYPE svg PUBLIC "-//W3C//DTD SVG 1.1//EN" "http://www.w3.org/Graphics/SVG/1.1/DTD/svg11.dtd"><svg t="1590575124884" class="icon" viewBox="0 0 1024 1024" version="1.1" xmlns="http://www.w3.org/2000/svg" p-id="1281" xmlns:xlink="http://www.w3.org/1999/xlink" width="16" height="16"><defs><style type="text/css"></style></defs><path d="M519.111111 105.500444c228.067556 0 413.596444 185.543111 413.596445 413.610667S747.164444 932.721778 519.111111 932.721778 105.514667 747.178667 105.514667 519.111111 291.043556 105.500444 519.111111 105.500444m0-28.444444C275.356444 77.056 77.070222 275.370667 77.070222 519.111111c0 243.740444 198.286222 442.055111 442.040889 442.055111 243.740444 0 442.040889-198.314667 442.040889-442.055111 0-243.740444-198.314667-442.055111-442.040889-442.055111z" fill="#13227a" p-id="1282"></path><path d="M735.146667 769.28a14.165333 14.165333 0 0 1-11.662223-6.072889c-59.676444-85.262222-126.037333-128.497778-197.219555-128.497778-120.106667 0-207.872 123.264-211.555556 128.512a14.222222 14.222222 0 1 1-23.296-16.341333c4.024889-5.731556 100.096-140.629333 234.837334-140.629333 81.009778 0 155.207111 47.317333 220.529777 140.643555a14.222222 14.222222 0 0 1-11.633777 22.385778zM712.888889 398.606222c68.209778 0 67.484444 105.969778-0.768 105.969778-68.209778-0.014222-67.484444-105.969778 0.768-105.969778zM326.101333 398.606222c68.209778 0 67.484444 105.969778-0.768 105.969778-68.209778-0.014222-67.484444-105.969778 0.768-105.969778z" fill="#13227a" p-id="1283"></path></svg>